<svg xmlns="http://www.w3.org/2000/svg" viewBox="0 0 500 500"><g id="freepik--background-complete--inject-2"><g id="freepik--background-complete--inject-2"><rect y="382.4" width="500" height="0.25" style="fill:#ebebeb"></rect><rect x="142.02" y="388.44" width="10.48" height="0.25" style="fill:#ebebeb"></rect><rect x="448.33" y="395" width="17.85" height="0.25" style="fill:#ebebeb"></rect><rect x="322.74" y="388.56" width="59.15" height="0.25" style="fill:#ebebeb"></rect><rect x="188.64" y="394.26" width="45.25" height="0.25" style="fill:#ebebeb"></rect><rect x="124" y="392.68" width="15.68" height="0.25" style="fill:#ebebeb"></rect><rect x="403.78" y="394.26" width="22.56" height="0.25" style="fill:#ebebeb"></rect><rect x="64.93" y="392.56" width="53.24" height="0.25" style="fill:#ebebeb"></rect><path d="M237,337.8H43.91a5.71,5.71,0,0,1-5.7-5.71V60.66A5.71,5.71,0,0,1,43.91,55H237a5.71,5.71,0,0,1,5.71,5.71h0V332.09A5.71,5.71,0,0,1,237,337.8ZM43.91,55.2a5.46,5.46,0,0,0-5.45,5.46V332.09a5.46,5.46,0,0,0,5.45,5.46H237a5.48,5.48,0,0,0,5.46-5.46V60.66A5.48,5.48,0,0,0,237,55.2Z" style="fill:#ebebeb"></path><path d="M453.31,337.8H260.21a5.73,5.73,0,0,1-5.71-5.71V60.66A5.72,5.72,0,0,1,260.21,55h193.1A5.71,5.71,0,0,1,459,60.66V332.09A5.7,5.7,0,0,1,453.31,337.8ZM260.21,55.2a5.48,5.48,0,0,0-5.46,5.46V332.09a5.48,5.48,0,0,0,5.46,5.46h193.1a5.48,5.48,0,0,0,5.46-5.46V60.66a5.48,5.48,0,0,0-5.46-5.46Z" style="fill:#ebebeb"></path><rect x="77.55" y="84.63" width="126.24" height="188.94" style="fill:#e6e6e6"></rect><rect x="74.75" y="84.63" width="126.24" height="188.94" style="fill:#f5f5f5"></rect><rect x="79.78" y="90.29" width="116.17" height="177.63" style="fill:#fff"></rect><rect x="79.79" y="90.28" width="2.12" height="177.63" style="fill:#e6e6e6"></rect><rect x="76.83" y="212.8" width="122.07" height="7.59" style="fill:#f5f5f5"></rect><rect x="69.51" y="76.05" width="129.4" height="38.86" style="fill:#f0f0f0;opacity:0.4000000059604645;isolation:isolate"></rect><path d="M69.26,75.27h140A.78.78,0,0,1,210,76h0a.78.78,0,0,1-.78.78h-140a.78.78,0,0,1-.77-.78h0A.79.79,0,0,1,69.26,75.27Z" style="fill:#e6e6e6"></path><path d="M64.61,76a3.88,3.88,0,1,0,3.89-3.87h0A3.88,3.88,0,0,0,64.61,76Z" style="fill:#e6e6e6"></path><path d="M202.75,80.38h0a1.05,1.05,0,0,0,1.05-1V77.09a1.05,1.05,0,0,0-1.05-1h0a1,1,0,0,0-1.05,1v2.3a1,1,0,0,0,1,1Z" style="fill:#e6e6e6"></path><path d="M81,80.38h0a1,1,0,0,0,1-1V77.09a1,1,0,0,0-1-1h0a1,1,0,0,0-1,1v2.25a1,1,0,0,0,1,1Z" style="fill:#e6e6e6"></path><path d="M186.41,76a3.88,3.88,0,1,0,3.89-3.87h0A3.88,3.88,0,0,0,186.41,76Z" style="fill:#e6e6e6"></path><rect x="392.71" y="296.3" width="36.52" height="80.96" style="fill:#e6e6e6"></rect><rect x="242.14" y="377.27" width="180.08" height="5.13" style="fill:#e6e6e6"></rect><rect x="235.12" y="296.31" width="157.59" height="80.96" style="fill:#f5f5f5"></rect><rect x="249.48" y="306.27" width="128.88" height="26.55" style="fill:#e6e6e6"></rect><rect x="249.48" y="340.75" width="128.88" height="26.55" style="fill:#e6e6e6"></rect><rect x="295.88" y="317.73" width="36.06" height="3.64" rx="1.61" style="fill:#f5f5f5"></rect><rect x="295.88" y="352.2" width="36.06" height="3.64" rx="1.61" style="fill:#f5f5f5"></rect><circle cx="349.17" cy="276.61" r="8.08" style="fill:#f5f5f5"></circle><circle cx="334.59" cy="274.81" r="8.05" style="fill:#f5f5f5"></circle><circle cx="295.67" cy="278.53" r="8.05" style="fill:#f5f5f5"></circle><circle cx="316.42" cy="282.25" r="8.05" style="fill:#f5f5f5"></circle><path d="M370.63,277.79s-1.3,18.52-51.26,18.52-51.26-18.52-51.26-18.52Z" style="fill:#e6e6e6"></path><rect x="182.27" y="298.33" width="18.23" height="79.06" style="fill:#e6e6e6"></rect><rect x="78.75" y="377.39" width="118.24" height="5.01" style="fill:#e6e6e6"></rect><rect x="75.25" y="298.33" width="107.01" height="79.06" style="fill:#f5f5f5"></rect><rect x="82.42" y="308.06" width="92.68" height="25.93" style="fill:#e6e6e6"></rect><rect x="82.42" y="341.73" width="92.68" height="25.93" style="fill:#e6e6e6"></rect><path d="M114.72,311.23h28.07a3.48,3.48,0,0,0,3.46-3.45h0a3.47,3.47,0,0,0-3.46-3.46H114.72a3.48,3.48,0,0,0-3.45,3.46h0A3.47,3.47,0,0,0,114.72,311.23Z" style="fill:#f5f5f5"></path><path d="M114.72,344.9h28.07a3.47,3.47,0,0,0,3.46-3.46h0a3.48,3.48,0,0,0-3.46-3.45H114.72a3.47,3.47,0,0,0-3.45,3.45h0A3.48,3.48,0,0,0,114.72,344.9Z" style="fill:#f5f5f5"></path><rect x="279.65" y="102.04" width="52.34" height="106.54" style="fill:#ebebeb"></rect><rect x="275.45" y="102.04" width="55.41" height="106.54" style="fill:#f5f5f5"></rect><rect x="283.5" y="110.1" width="39.29" height="90.42" style="fill:#fff"></rect><rect x="401.42" y="158.73" width="28.66" height="33.02" style="fill:#ebebeb"></rect><rect x="395.62" y="158.73" width="31.06" height="33.02" style="fill:#f5f5f5"></rect><rect x="398.23" y="161.34" width="25.85" height="27.81" style="fill:#fff"></rect><rect x="404.49" y="168.08" width="13.32" height="14.33" rx="2.28" style="fill:#f0f0f0"></rect><rect x="378.32" y="112.79" width="28.66" height="33.02" style="fill:#ebebeb"></rect><rect x="372.53" y="112.79" width="31.06" height="33.02" style="fill:#f5f5f5"></rect><rect x="375.14" y="115.39" width="25.85" height="27.81" style="fill:#fff"></rect><rect x="381.4" y="122.13" width="13.32" height="14.33" rx="2.28" style="fill:#f0f0f0"></rect></g></g><g id="freepik--Shadow--inject-2"><g id="freepik--shadow--inject-2"><ellipse cx="250" cy="416.24" rx="193.89" ry="11.32" style="fill:#f5f5f5"></ellipse></g></g><g id="freepik--Images--inject-2"><g id="freepik--photo-3--inject-2"><rect x="109.67" y="126.37" width="215.91" height="211.41" style="fill:#B0BEC5"></rect><rect x="109.67" y="126.37" width="215.91" height="211.41" style="opacity:0.699999988079071;isolation:isolate"></rect><rect x="115.23" y="133.13" width="204.81" height="204.65" style="fill:#fff"></rect><polygon points="325.58 334.8 325.58 337.78 216.77 337.78 240.29 314.28 272.67 281.88 325.58 334.8" style="fill:#B0BEC5"></polygon><polygon points="325.58 334.8 325.58 337.78 216.77 337.78 240.29 314.28 272.67 281.88 325.58 334.8" style="opacity:0.699999988079071;isolation:isolate"></polygon><polygon points="109.67 337.78 109.67 317.46 176.57 250.56 263.79 337.78 109.67 337.78" style="fill:#B0BEC5"></polygon><polygon points="109.67 337.78 109.67 317.46 176.57 250.56 263.79 337.78 109.67 337.78" style="opacity:0.699999988079071;isolation:isolate"></polygon><circle cx="253.23" cy="194.22" r="33.06" transform="translate(20.95 413.07) rotate(-80.78)" style="fill:#B0BEC5"></circle><circle cx="253.23" cy="194.22" r="33.06" transform="translate(20.95 413.07) rotate(-80.78)" style="opacity:0.699999988079071;isolation:isolate"></circle></g><g id="freepik--photo-2--inject-2"><rect x="165.16" y="129.96" width="211.41" height="215.91" transform="translate(7.74 484.36) rotate(-84.42)" style="fill:#B0BEC5"></rect><rect x="165.16" y="129.89" width="211.41" height="215.91" transform="translate(7.81 484.3) rotate(-84.42)" style="opacity:0.10000000149011612;isolation:isolate"></rect><rect x="168.22" y="138.87" width="204.65" height="204.81" transform="translate(4.11 487.08) rotate(-84.42)" style="fill:#fff"></rect><rect x="367.64" y="134.6" width="1" height="7.18" transform="translate(194.81 491.15) rotate(-84.42)" style="fill:#B0BEC5"></rect><rect x="350.09" y="126.2" width="1" height="17.66" transform="translate(181.35 470.45) rotate(-84.29)" style="fill:#B0BEC5"></rect><rect x="367.64" y="134.6" width="1" height="7.18" transform="translate(194.81 491.15) rotate(-84.42)" style="opacity:0.10000000149011612;isolation:isolate"></rect><rect x="350.09" y="126.2" width="1" height="17.66" transform="translate(181.35 470.45) rotate(-84.29)" style="opacity:0.10000000149011612;isolation:isolate"></rect><polygon points="368.31 350.63 368.02 353.6 259.73 343.02 285.42 321.92 320.8 292.82 368.31 350.63" style="opacity:0.10000000149011612;isolation:isolate"></polygon><polygon points="368.31 350.63 368.02 353.6 259.73 343.02 285.42 321.92 320.8 292.82 368.31 350.63" style="fill:#B0BEC5"></polygon><polygon points="368.31 350.63 368.02 353.6 259.73 343.02 285.42 321.92 320.8 292.82 368.31 350.63" style="opacity:0.10000000149011612;isolation:isolate"></polygon><circle cx="309.98" cy="203.7" r="33.06" style="opacity:0.10000000149011612;isolation:isolate"></circle><circle cx="309.98" cy="203.7" r="33.06" style="fill:#B0BEC5"></circle><circle cx="309.98" cy="203.7" r="33.06" style="opacity:0.10000000149011612;isolation:isolate"></circle></g><g id="freepik--photo-1--inject-2"><rect x="83.97" y="156.95" width="215.91" height="211.41" transform="translate(-16.72 13.08) rotate(-3.74)" style="fill:#B0BEC5"></rect><rect x="89.74" y="163.7" width="204.81" height="204.65" transform="translate(-16.94 13.1) rotate(-3.74)" style="fill:#fff"></rect><rect x="83.97" y="156.95" width="215.91" height="211.41" transform="translate(-16.72 13.08) rotate(-3.74)" style="fill:#fff;opacity:0.5;isolation:isolate"></rect><polygon points="306.33 358.14 306.52 361.11 197.95 368.2 219.88 343.22 250.08 308.78 306.33 358.14" style="fill:#B0BEC5"></polygon><polygon points="306.33 358.14 306.52 361.11 197.95 368.2 219.88 343.22 250.08 308.78 306.33 358.14" style="fill:#fff;opacity:0.5;isolation:isolate"></polygon><polygon points="91.07 375.18 89.75 354.91 152.15 283.79 244.86 365.14 91.07 375.18" style="fill:#B0BEC5"></polygon><polygon points="91.07 375.18 89.75 354.91 152.15 283.79 244.86 365.14 91.07 375.18" style="fill:#fff;opacity:0.5;isolation:isolate"></polygon><circle cx="224.98" cy="222.58" r="33.06" style="fill:#B0BEC5"></circle><circle cx="224.98" cy="222.58" r="33.06" style="fill:#fff;opacity:0.5;isolation:isolate"></circle></g></g></svg>